<svg width="100%" height="100%" style="overflow:visible;" preserveAspectRatio="none" viewBox="0 0 342.28 173.73" fill="none" xmlns="http://www.w3.org/2000/svg">
<g filter="url(#filter0_f_6_1632)">
<ellipse cx="254.776" cy="61.5146" rx="17.5016" ry="14.7381" transform="rotate(1.07834 254.776 61.5146)" fill="#1D1D1F"/>
</g>
<mask id="path-2-inside-1_6_1632" fill="white">
<path d="M255 143.45C255 112.685 243.042 83.1795 221.757 61.4253C200.471 39.6711 171.602 27.4497 141.5 27.4497C111.398 27.4497 82.5289 39.6711 61.2435 61.4253C39.9581 83.1795 28.0001 112.685 28.0001 143.45H29.9205C29.9205 113.205 41.6762 84.1993 62.6014 62.8131C83.5266 41.427 111.907 29.4124 141.5 29.4124C171.093 29.4124 199.474 41.427 220.399 62.8131C241.324 84.1993 253.08 113.205 253.08 143.45H255Z"/>
</mask>
<path d="M255 143.45C255 112.685 243.042 83.1795 221.757 61.4253C200.471 39.6711 171.602 27.4497 141.5 27.4497C111.398 27.4497 82.5289 39.6711 61.2435 61.4253C39.9581 83.1795 28.0001 112.685 28.0001 143.45H29.9205C29.9205 113.205 41.6762 84.1993 62.6014 62.8131C83.5266 41.427 111.907 29.4124 141.5 29.4124C171.093 29.4124 199.474 41.427 220.399 62.8131C241.324 84.1993 253.08 113.205 253.08 143.45H255Z" stroke="#7A7A7A" stroke-width="2" stroke-dasharray="2 16" mask="url(#path-2-inside-1_6_1632)"/>
<path d="M8.27227 150.47C3.863 150.752 0.0362165 147.404 0.00369596 142.986C-0.251479 108.318 12.2406 74.6518 35.2628 48.4838C58.285 22.3157 90.0859 5.63693 124.503 1.47401C128.89 0.943475 132.698 4.3126 132.98 8.72187L132.999 9.02603C133.281 13.4353 129.929 17.212 125.547 17.7748C95.4471 21.6406 67.6696 36.333 47.5043 59.2537C27.3391 82.1743 16.3048 111.597 16.3047 141.944C16.3047 146.363 12.9857 150.168 8.57643 150.45L8.27227 150.47Z" fill="#17C0E1" fill-opacity="0.72"/>
<path d="M135.847 8.56944C135.66 4.15513 139.09 0.401251 143.507 0.463845C170.316 0.84368 196.471 8.83516 218.913 23.5035C222.611 25.9207 223.357 30.9502 220.735 34.5062L220.554 34.7515C217.932 38.3074 212.936 39.0405 209.22 36.6506C189.795 24.1578 167.287 17.2806 144.197 16.7834C139.78 16.6883 136.047 13.2883 135.86 8.87395L135.847 8.56944Z" fill="#4318FF"/>
<path d="M223.272 36.4242C225.978 32.9317 231.02 32.2776 234.354 35.1769C247.027 46.1979 257.638 59.388 265.687 74.1281C267.805 78.0058 266.086 82.7904 262.095 84.6856L261.819 84.8163C257.828 86.7115 253.079 84.9976 250.933 81.1356C244.015 68.6881 235.024 57.5112 224.348 48.0876C221.035 45.1639 220.379 40.1575 223.085 36.6651L223.272 36.4242Z" fill="#1D1D1F"/>
<path d="M262.676 85.9269C266.687 84.0728 271.464 85.8137 273.088 89.9225C279.768 106.817 283.132 124.842 282.996 143.008C282.963 147.427 279.136 150.773 274.727 150.491L274.422 150.471C270.013 150.189 266.695 146.383 266.695 141.965C266.697 126.511 263.838 111.189 258.261 96.7759C256.667 92.6552 258.389 87.9089 262.4 86.0548L262.676 85.9269Z" fill="#5B44BD"/>
<circle cx="248" cy="61.4497" r="10" fill="#F9F9F9" stroke="#1D1D1F" stroke-width="8"/>
<defs>
<filter id="filter0_f_6_1632" x="167.275" y="-23.2247" width="175.001" height="169.479" filterUnits="userSpaceOnUse" color-interpolation-filters="sRGB">
<feFlood flood-opacity="0" result="BackgroundImageFix"/>
<feBlend mode="normal" in="SourceGraphic" in2="BackgroundImageFix" result="shape"/>
<feGaussianBlur stdDeviation="35" result="effect1_foregroundBlur_6_1632"/>
</filter>
</defs>
</svg>
