<svg width="100%" height="100%" style="overflow:visible;" preserveAspectRatio="none" viewBox="0 0 18.19 21" fill="none" xmlns="http://www.w3.org/2000/svg">
<path d="M8.09692 10.1236C7.74893 10.1249 7.41101 10.2405 7.13512 10.4526C6.85923 10.6647 6.66064 10.9616 6.56987 11.2975C6.4791 11.6335 6.50119 11.9899 6.63273 12.3121C6.76427 12.6343 6.99798 12.9043 7.29795 13.0807V15.3461H8.91538V13.0807C9.1527 12.9404 9.34966 12.741 9.4871 12.5019C9.62455 12.2629 9.6978 11.9924 9.69974 11.7166V11.7166C9.69974 11.5066 9.65822 11.2987 9.57755 11.1047C9.49688 10.9108 9.37866 10.7348 9.2297 10.5867C9.08073 10.4386 8.90396 10.3215 8.70956 10.242C8.51515 10.1625 8.30694 10.1223 8.09692 10.1236V10.1236Z" stroke="#575DFB" stroke-linecap="round" stroke-linejoin="round"/>
<path d="M14.0844 6.46484H2.10462C0.942268 6.46484 0 7.40711 0 8.56946V16.8954C0 18.0577 0.942268 19 2.10462 19H14.0844C15.2467 19 16.189 18.0577 16.189 16.8954V8.56946C16.189 7.40711 15.2467 6.46484 14.0844 6.46484Z" stroke="#575DFB" stroke-width="2" stroke-linecap="round" stroke-linejoin="round"/>
<path d="M2.90845 6.46487V5.19333C2.90845 3.81598 3.4556 2.49503 4.42954 1.52109C5.40348 0.547153 6.72442 0 8.10178 0C9.47914 0 10.8001 0.547153 11.774 1.52109C12.748 2.49503 13.2951 3.81598 13.2951 5.19333V6.46487" stroke="#575DFB" stroke-width="2" stroke-linecap="round" stroke-linejoin="round"/>
</svg>
