<svg width="100%" height="100%" style="overflow:visible;" preserveAspectRatio="none" viewBox="0 0 30 30" fill="none" xmlns="http://www.w3.org/2000/svg">
<g opacity="0.9">
<path d="M15 2.5C8.1 2.5 2.5 8.1 2.5 15C2.5 21.9 8.1 27.5 15 27.5H25C26.375 27.5 27.5 26.375 27.5 25V15C27.5 8.1 21.9 2.5 15 2.5ZM15 25C11.3875 25 8.2125 23.075 6.4625 20.2L10.15 16.5125L14.2625 20L20 14.275V16.25H22.5V10H16.25V12.5H18.225L14.125 16.6L10 13.125L5.3875 17.75C5.1375 16.875 5 15.95 5 15C5 9.4875 9.4875 5 15 5C20.5125 5 25 9.4875 25 15C25 20.5125 20.5125 25 15 25ZM24.375 25.625C23.6875 25.625 23.125 25.0625 23.125 24.375C23.125 23.6875 23.6875 23.125 24.375 23.125C25.0625 23.125 25.625 23.6875 25.625 24.375C25.625 25.0625 25.0625 25.625 24.375 25.625Z" fill="#544C4C"/>
</g>
</svg>
